<mxfile modified="2022-04-04T12:12:28.019Z" host="app.diagrams.net" agent="5.0 (Macintosh; Intel Mac OS X 10_15_7) AppleWebKit/537.36 (KHTML, like Gecko) Chrome/100.0.4896.60 Safari/537.36" etag="eEJgbDkpvioAjRHEWcs1" version="17.2.5" type="github">
  <diagram id="Ht1M8jgEwFfnCIfOTk4-" name="Page-1">
    <mxGraphModel dx="1670" dy="1129" grid="1" gridSize="10" guides="1" tooltips="1" connect="1" arrows="1" fold="1" page="1" pageScale="1" pageWidth="1169" pageHeight="827" math="0" shadow="0">
      <root>
        <mxCell id="0" />
        <mxCell id="1" parent="0" />
        <mxCell id="QRO-fFZTu3QB9WpkV5zD-23" style="edgeStyle=orthogonalEdgeStyle;rounded=0;orthogonalLoop=1;jettySize=auto;html=1;strokeColor=#666666;" edge="1" parent="1" source="QRO-fFZTu3QB9WpkV5zD-3" target="QRO-fFZTu3QB9WpkV5zD-12">
          <mxGeometry relative="1" as="geometry">
            <Array as="points">
              <mxPoint x="89" y="420" />
            </Array>
          </mxGeometry>
        </mxCell>
        <mxCell id="QRO-fFZTu3QB9WpkV5zD-2" value="SDS Cloud" style="points=[[0,0],[0.25,0],[0.5,0],[0.75,0],[1,0],[1,0.25],[1,0.5],[1,0.75],[1,1],[0.75,1],[0.5,1],[0.25,1],[0,1],[0,0.75],[0,0.5],[0,0.25]];outlineConnect=0;gradientColor=none;html=1;whiteSpace=wrap;fontSize=12;fontStyle=0;container=1;pointerEvents=0;collapsible=0;recursiveResize=0;shape=mxgraph.aws4.group;grIcon=mxgraph.aws4.group_aws_cloud;strokeColor=#232F3E;fillColor=none;verticalAlign=top;align=left;spacingLeft=30;fontColor=#232F3E;dashed=0;" vertex="1" parent="1">
          <mxGeometry x="240" y="200" width="540" height="160" as="geometry" />
        </mxCell>
        <mxCell id="QRO-fFZTu3QB9WpkV5zD-29" value="Elasticsearch" style="sketch=0;points=[[0,0,0],[0.25,0,0],[0.5,0,0],[0.75,0,0],[1,0,0],[0,1,0],[0.25,1,0],[0.5,1,0],[0.75,1,0],[1,1,0],[0,0.25,0],[0,0.5,0],[0,0.75,0],[1,0.25,0],[1,0.5,0],[1,0.75,0]];outlineConnect=0;fontColor=#232F3E;gradientColor=#945DF2;gradientDirection=north;fillColor=#5A30B5;strokeColor=#ffffff;dashed=0;verticalLabelPosition=bottom;verticalAlign=top;align=center;html=1;fontSize=12;fontStyle=0;aspect=fixed;shape=mxgraph.aws4.resourceIcon;resIcon=mxgraph.aws4.elasticsearch_service;" vertex="1" parent="QRO-fFZTu3QB9WpkV5zD-2">
          <mxGeometry x="110" y="55" width="60" height="60" as="geometry" />
        </mxCell>
        <mxCell id="QRO-fFZTu3QB9WpkV5zD-31" value="Prometheus" style="sketch=0;points=[[0,0,0],[0.25,0,0],[0.5,0,0],[0.75,0,0],[1,0,0],[0,1,0],[0.25,1,0],[0.5,1,0],[0.75,1,0],[1,1,0],[0,0.25,0],[0,0.5,0],[0,0.75,0],[1,0.25,0],[1,0.5,0],[1,0.75,0]];points=[[0,0,0],[0.25,0,0],[0.5,0,0],[0.75,0,0],[1,0,0],[0,1,0],[0.25,1,0],[0.5,1,0],[0.75,1,0],[1,1,0],[0,0.25,0],[0,0.5,0],[0,0.75,0],[1,0.25,0],[1,0.5,0],[1,0.75,0]];outlineConnect=0;fontColor=#232F3E;gradientColor=#F34482;gradientDirection=north;fillColor=#BC1356;strokeColor=#ffffff;dashed=0;verticalLabelPosition=bottom;verticalAlign=top;align=center;html=1;fontSize=12;fontStyle=0;aspect=fixed;shape=mxgraph.aws4.resourceIcon;resIcon=mxgraph.aws4.managed_service_for_prometheus;" vertex="1" parent="QRO-fFZTu3QB9WpkV5zD-2">
          <mxGeometry x="270" y="56" width="58" height="58" as="geometry" />
        </mxCell>
        <mxCell id="QRO-fFZTu3QB9WpkV5zD-33" value="Grafana" style="sketch=0;points=[[0,0,0],[0.25,0,0],[0.5,0,0],[0.75,0,0],[1,0,0],[0,1,0],[0.25,1,0],[0.5,1,0],[0.75,1,0],[1,1,0],[0,0.25,0],[0,0.5,0],[0,0.75,0],[1,0.25,0],[1,0.5,0],[1,0.75,0]];points=[[0,0,0],[0.25,0,0],[0.5,0,0],[0.75,0,0],[1,0,0],[0,1,0],[0.25,1,0],[0.5,1,0],[0.75,1,0],[1,1,0],[0,0.25,0],[0,0.5,0],[0,0.75,0],[1,0.25,0],[1,0.5,0],[1,0.75,0]];outlineConnect=0;fontColor=#232F3E;gradientColor=#F34482;gradientDirection=north;fillColor=#BC1356;strokeColor=#ffffff;dashed=0;verticalLabelPosition=bottom;verticalAlign=top;align=center;html=1;fontSize=12;fontStyle=0;aspect=fixed;shape=mxgraph.aws4.resourceIcon;resIcon=mxgraph.aws4.managed_service_for_grafana;" vertex="1" parent="QRO-fFZTu3QB9WpkV5zD-2">
          <mxGeometry x="350" y="57" width="59" height="59" as="geometry" />
        </mxCell>
        <mxCell id="QRO-fFZTu3QB9WpkV5zD-40" value="Cloud Console" style="verticalLabelPosition=bottom;sketch=0;html=1;fillColor=#A153A0;strokeColor=#ffffff;verticalAlign=top;align=center;points=[[0,0.5,0],[0.125,0.25,0],[0.25,0,0],[0.5,0,0],[0.75,0,0],[0.875,0.25,0],[1,0.5,0],[0.875,0.75,0],[0.75,1,0],[0.5,1,0],[0.125,0.75,0]];pointerEvents=1;shape=mxgraph.cisco_safe.compositeIcon;bgIcon=mxgraph.cisco_safe.design.blank_device;resIcon=mxgraph.cisco_safe.design.monitoring;" vertex="1" parent="QRO-fFZTu3QB9WpkV5zD-2">
          <mxGeometry x="440" y="54" width="60" height="59" as="geometry" />
        </mxCell>
        <mxCell id="QRO-fFZTu3QB9WpkV5zD-44" value="Kibana" style="shape=image;imageAspect=0;aspect=fixed;verticalLabelPosition=bottom;verticalAlign=top;image=data:image/png,iVBORw0KGgoAAAANSUhEUgAAASwAAAEsCAYAAAB5fY51AAAftklEQVR4Xu2dfZTcZXXHv89vZvYt2cwsCSgGgzS8iUA0ISE1L+xsgADZ2SDWgB4rcGjZ3dRTBd9KqzYoKq1v9PS0CrY9gm2PaGvIzAKiZGdE0oYlm/iCViq0ghIJJILZQEI2O7dnEooEkuzMb34v93l+X//xD5/n3u/93Ltfl+THfQz4HxIgARKwhICxRCdlkgAJkABiN6xnC1/6lACL2AsSIAE9BDyYLdnSwDV6FB1QErthPVP4ctEYFLSBoR4SSCoBEXkincbczrWDT2ljQMPS1hHqIYEYCYjguZSpzptWXP1wjDIOm5qGpbEr1EQC8RCYQBXLc0MD6+NJP3lWGtbkjHiCBBJBwFRxeXZo4DbNxdKwNHeH2kggKgIin8qVBj8aVTq/eWhYfsnxHgm4QkBwe640cJkN5dCwbOgSNZJAWARENmbHti0xlTX7wkoRZFwaVpA0GYsErCIgj4jXNr/rjiuftUU2DcuWTlEnCQRJQLC9FWZee6n/8SDDhh2LhhU2YcYnAWUEBLIbwKKu4uAWZdImlUPDmhQRD5CAQwQEYlBdkS2tvtvGqmhYNnaNmknAJwERubarNPhFn9djv0bDir0FFEACEREQ3JIrDfRHlC2UNDSsULAyKAkoIyC4K1vq7zUwokxZQ3JoWA3h4mESsI+AAD/O7WxdYCpX7rFP/cGKaVi2d5D6SeAIBDSvivHTOBqWH2q8QwIWEBCRnSkjC7SuivGDkIblhxrvkIB+AuPeRHXZtDtXf1+/1PoV0rDqZ8WTJGAPAZFLc6XBb9gjuD6lNKz6OPEUCVhDQCDXdxUH11gjuAGhNKwGYPEoCagnYNGqGD8saVh+qPEOCSgkIMB9uZ1PLrNlVYwfhDQsP9R4hwS0ERD8LGsyC0zxqjFt0oLUQ8MKkiZjkUAcBATbMyYzZ0rxqq1xpI8yJw0rStrMRQIBE7B5VYwfFDQsP9R4hwRUEJCqEem1dVWMH4Q0LD/UeIcEVBCQq3PFwa+okBKRCBpWRKCZhgSCJGAEN2VLA9cEGdOGWDQsG7pEjSTwcgKOrIrx01Qalh9qvEMCcREQbM6OtS5yYVWMH4Q0LD/UeIcEYiAgIo+l0hPzpq19744Y0qtIScNS0QaKIIEjE6itijH7vLm5u/sfTTIrGlaSu8/abSHg5KoYP/BpWH6o8Q4JREnA0VUxfhDSsPxQ4x0SiIiAAT6WLQ7cEFE69WloWOpbRIFJJSCQW7uKg1cktf5D1U3D4jSQgEIC+1fFFJ/MG6ypKpQXmyQaVmzomZgEDkMgIati/PSfhuWHGu+QQFgEBNsyJjM3Cati/CCkYfmhxjskEAIBETyXrsrCzjsHHwohvBMhaVhOtJFF2E9Aqqia83NDA+vtryW8CmhY4bFlZBJogEDyVsU0AOelozQsP9R4hwSCJCD4XK408KEgQ7oai4blamdZlyUEZG2uOHiJJWJjl0nDir0FFJBYArVVMVvNQjPaP55YBg0WTsNqEBiPk0AQBLgqxh9FGpY/brxFAv4JiDyDfd78pK+K8QOQhuWHGu+QgH8Ce40xS7Pr+h/wHyK5N2lYye09K4+BgIh5W1ep/44YUjuRkoblRBtZhCUE/jxXHPiMJVpVyqRhqWwLRblGgKtigukoDSsYjoxCAkcgIPdmi9uWc1VM80NCw2qeISOQwGEJCPDjnJiFptT/PDE1T4CG1TxDRiCBQxMQbEul5czOtYNPEVEwBGhYwXBkFBI4iABXxYQzEDSscLgyarIJTKCK5VwVE/wQ0LCCZ8qICSdgqrg8OzRwW8IxhFI+DSsUrAyaWAIiN+ZKg9cltv6QC6dhhQyY4ZNEgKtiwu42DStswoyfDAIiG7NbvaVcFRNuu2lY4fJl9EQQkEfEa5vfdceVzyai3BiLpGHFCJ+pHSAg8kwrvDe3l/ofd6Aa9SXQsNS3iAIVE+CqmIibQ8OKGDjTOUJAIAJzCVfFRNtPGla0vJnNFQJV8+HcUP9nXSnHljpoWLZ0ijr1EBDckisN9OsRlBwlNKzk9JqVBkKgtipm4HwDI4GEY5CGCNCwGsLFw0kmwFUx8XefhhV/D6jAAgIi8kQ6jblcFRNvs2hY8fJndgsIiMjOlJEF04qrH7ZArtMSaVhOt5fFBUBgwpuo5qfdufr7AcRiiCYJ0LCaBMjrbhPgqhhd/aVh6eoH1WgiIPKpXGnwo5okJV0LDSvpE8D6D01AcHuuNHAZ8egiQMPS1Q+q0UCgtipmbNsSU1mzT4McavgdARoWp4EEDiLAVTGaB4KGpbk71BYtAcH2Vph5XBUTLfZGstGwGqHFs84SEMhuAIu6ioNbnC3SgcJoWA40kSU0SUAgBtUV2dLqu5uMxOshE6BhhQyY4fUTEJFru0qDX9SvlAppWJyBZBPgqhir+k/DsqpdFBsoAcFd2VJ/L1fFBEo11GA0rFDxMrhaAoLN2bHWRaZy5R61GinsVQRoWByKxBGorYpJpSfmTFv73h2JK97ygmlYljeQ8hsjwFUxjfHSdpqGpa0j1BMmgXFvorqMq2LCRBxubBpWuHwZXRMBkUtzpcFvaJJELY0RoGE1xounLSUgkOu7ioNrLJVP2S8SoGFxFNwnwFUxzvSYhuVMK1nIoQgIcF9u55PLuCrGjfmgYbnRR1ZxaLf6WdZkFpjiVWME5AYBGpYbfWQVryQg2J4xmTlTildtJRx3CNCw3OklK3mRAFfFuDsKNCx3e5vQyqRqRHq5KsbN9tOw3OxrgquSq3PFwa8kGIDTpdOwnG5vsoozgpuypYFrklV1sqqlYSWr3+5Wy1Ux7vb2ZZXRsBLRZseL5KoYxxv8u/JoWIlptZuFishjqfTEPK6KcbO/r6yKhpWMPrtZpcgz2OfNz93d/6ibBbIqGhZnwBUC48aYJdl1/Q+4UhDrmJwAf8OanBFPaCTAVTEauxK6JhpW6IiZIGgCBvhYtjhwQ9BxGU8/ARqW/h5R4csICOTWruLgFYSSTAI0rGT23cqq96+KKT6ZN1hTtbIAim6aAA2raYQMEAkBAVfFRAJadxIalu7+UF2NgGBbxmTmclUMx4GGxRlQTUAEz6WrsrDzzsGHVAuluEgI0LAiwcwk/ghIFVVzfm5oYL2/+7zlGgEalmsddaoeropxqp0BFBO7Yc1b0L22w0tf0GJSe9qRfqHVpF9oN6m9bV5mvA3pfR0mM95uUvummMxEm5eRDi9VbZOW/f/d5bV5R3lt6Wmp1rZ2k+5skVTW88zRAXBhiPgJfDZXHPhw/DKoQBOB+A3r7O47DMzKoKCIiHSl2n87w2t/5mivY+zYdMfuY70pe49JTanOSLWnsqa1tdO0Tu3w0r9njGkNKi/jBErg33LFgXcEGpHBnCDgnGE10pVjvPanT0kftfW0lhk7T05Pl1npzqmdqZZj0+K9Fgaxs2mkFmfOimzMbvWWmtH+cWdqYiGBEYj9h3JewL9hBUGm1Xi7Z6eP+uVp6em/eWPmqBd+L51rmZHqmN7mpV5vYNqDyMEYryZQWxWDVNubu+648lnyIYFDEaBhNTAXRkz1lJauRxa3HPfk/NZjvVnpzpkZkzqhgRA8ejgCXBXD2aiDAA2rDkhHOjLNtD5zduuxjyxpOe7501qnZ6eZ1pM9YzqaDJu063uNMUu5KiZpbW+8XhpW48yOeOPAb2FHPbq0dea2+ZnXea/PdB6XNt6sgNO4E04gAnNJV6n/DneKYiVhEaBhhUX2ZXGP8dp/3dtx4qPLWt+QOTrVdrpnvCkRpLUjhch1udLgjXaIpcq4CdCwIu5ASsz4ovbX/XRF2+ydZ7Qcc1xLgv8MjKtiIh4+B9LRsGJu4sxU568KHbP/t7ttVscM0/4mGLTFLCmi9HJvtrhtOVfFRITbkTQ0LEWNbDWpFxa3Hvdfve0n7npj5qgT0sabqUheYFIE+HFOzEJT6n8+sKAMlAgCNCzFbX5TZsbPr5hy+pNzWo55o2fMDMVS65cm2JZKy5mdawefqv8ST5LAAQI0LAsmwQhkadvrH3rXlNOeOyGdPdPWzya4KsaCYVMukYalvEGvlNduUnsK7Sf98JKOkzIzUh1zAKQsKWECVSznqhhLuqVUJg1LaWPqkdXlte54V8fpP13efvzRHV7m1HruxHXGVHF5dmjgtrjyM68bBGhYbvQRx6eyj18x9bTH3tr2+hNSMMepKkvkxlxp8DpVmijGSgI0LCvbdnjRtSUT+dZZm/s752B6qn1u/OXJ2lxx8JL4dVCBCwRoWC508TA1vCGdfewDnWf98tSW6fNi2TLBVTEOT1c8pdGw4uEeadZO0zJ29dQzf3Re+wmz08Z7bTTJ5RHx2uZzVUw0tJOShYaVlE4D8ARS6Dhx8+VTzmiflmo5LbTSBdtbYea1l/ofDy0HAyeSAA0rkW0HzsjMePj9nWf95vhM9iwAmQAx7BXIwq7i4JYAYzIUCewnQMNK+CDM8Nqf+sC0+Zvntxx7Fgya+5qeq2ISPk3hl0/DCp+xFRlaTerxj3Yu3PT77cf1AMj5Ei34UK408Dlfd3mJBOogQMOqA1KSjnR6rY9en130kzMyR59rDOrfnCq4JVca6E8SK9YaPQEaVvTMrcg43Wt7+Ibc0v85KdO1DEDLkUXXVsUMnG9gxIriKNJaAjQsa1sXjfCZqakPfbrrnG0zU1PygPFemZWrYqLpA7McIEDD4iTUReDEdHbLDbklz81ITVn8/xdE5Il0GnO5KqYuhDwUAAEaVgAQkxTiTenpP/pkbqnp9DLHp4wsmFZc/XCS6met8RKI37AWdK81xlwcLwZmb5TAOemZ539+wz9/t9F7PE8CzRCI37AUvvzcDNBE3BVcvmmkzFUxiWi2riJpWLr6oV+NyPWbRipr9AulQhcJ0LBc7GpINYnIraMjlStCCs+wJDApARrWpIh4oEZARDZ2dmBJpVLZRyIkEBcBGlZc5C3KK5BHUpJaODKyfodFsinVQQI0LAebGmRJIrIdE97C0dHhR4OMy1gk4IcADcsPtcTckd1iTH50Y/mBxJTMQlUToGGpbk984kRQBeTtoyOVO+JTwcwkcDABGhYn4pAEqpBrNj9QuYl4SEATARqWpm4o0SKQvxl9oPJ+JXIogwReIkDD4jAcREBE1o6OVN5e+5KBaEhAGwEalraOxKin9q3VjqeQ/8UvKntilMHUJHBYAjQsDsd+AvzWioNgAwEalg1dClkjv7UKGTDDB0aAhhUYSjsDicg4PLNE1bdW5aFzIfIhpFPvxtKLnraTLFWHQYCGFQZVm2JqWxVTHjodIhthMAXAk/C8S3HOivtsQkqt4RGgYYXHVn9kbati7l/3Ouw1m2HMa16CJ1KFMZ9Ad+8nYUxVP1QqDJMADStMuopjq1sVc/+6Tox7IwBOPSQ2ke+hKpfi3JXbFGOltJAJ0LBCBqwzvNw7tR0XqlkVI+KhXCrDmKWT8Hoagneip7BeJ1eqCpsADStswsriC+THu9Ljix7esGFMjbRy6asALq9Lz4F/RPw0nt69BqtWTdR1h4ecIUDDcqaVkxciwBPVvXsXbNmyYevkpyM6US7+BWBuaDib4D/QUn0HFq/UU0vDRfBCowRoWI0Ss/W8YCeqsmjTpspDakoYLq6CMbf71iOyAyZ1AfIrNvmOwYtWEaBhWdUuf2Jr31pVxVy45cGynj/7Gb7zbJiJ7wMm46+qF2+J7AVwJXr6/rWpOLxsBQEalhVtalKktm+t1t81G97EgwC6mqzsZdflc+gufISfPgRHVGMkGpbGrgSoSUT+anSk8mcBhmwu1L3fmg4vMwqD45sLdMjb92Jvy8VYvvy5EGIzpAICNCwFTQhLgrpVMeVyG2TXBhjMDatmAD9D1bsAy1Y8FmIOho6JAA0rJvBhp1W5Kma4dCcMLgq7dgDPwPMu5r/SEwHpiFPQsCIGHkU6latihkufh8G1UdS/P4fIBIy5DPnCv0WWk4lCJ0DDCh1xtAlUroqplP4YgluiJXHAtgD5MPJ9n4shN1OGQICGFQLU+EIqfJarUrwQVQzBGC82LiJfQk/f6tjyM3FgBGhYgaGMN5DKZ7lqq2JQHQFMe7x09mf/JjD1Xcjn9ynQQgk+CdCwfILTdk3ds1yHWhUTN7TaxgfT2Yt8flfcUpjfHwEalj9uqm6pe5ZrslUxcdIT+QmM6Ua+sD1OGcztjwANyx83NbcUfmuVhoytr2NVTHwMBY8hY3qwpPd/4hPBzH4I0LD8UFNyR+W3VuXS1wFcqgTR4WUIfgOgBz2FH6rXSoEvEaBhWToMtVUxKfHmjIys36GmhMrQxyDyCTV6JhUiu5Ayy7C0UNt0yv9YQICGZUGTXiXRxVUxsfWBphUbeh+JaVg+oMV5ReWqmMrQEkh1fdOrYmIDS9OKDX2DiWlYDQKL/bjGVTFmYjMMpsXOpikBNK2m8EV0mYYVEehA0mh7livcVTGBIGssCE2rMV7Rn6ZhRc/cV0Z1z3JFsyrGF6vmLtG0muMX7m0aVrh8A4qu7lkug/LQUESrYgJi2EgYmlYjtKI8S8OKkraPXCqf5RoufgHGXOOjHIuuyBiQWor8ih9YJNp5qTQsxS1W+SxXfKtiou9U7VWejLeAX8RHj/5wGWlYenpxsBKN31ppWBUTdb8Ej6O1ZT4WLX8q6tTM92oCNCyFU6HyWytdq2Ki7tpD2Ne2GOed99uoEzPfwQRoWAonQkQGR0cqX1YjTeOqmKjhCEawJ7UUF130QtSpme93BGhYyqaBq2KUNeQgOfJtPL2nF6tWTWhW6bI2Gpai7nJVjKJmHF7KN5EvrLJCqYMiaVhKmspVMUoaUZ+Mv0O+8N76jvJUkARoWEHS9BlL57NcxY/DmOt9lpSAa+Ya5HtvSkChqkqkYcXcDpXPcg0XV8GY22NGozu9SBWCC7Gs7zu6hbqljoYVaz81Pstl+6qYKBsqu+CZuTin8PMosyY5Fw0rpu6rfJZr/V2z4cSqmCibKv8LTMxF/m3PRpk1qbloWDF1Xt2zXM6tiomwsSIbYDq7+eZh+MxpWOEzflUGdd9aObsqJsrmyj8j3/eHUWZMYi4aVsRdV/etlYjjq2KibDD/5jBs2jSssAm/LH5tVcyObVjwi19U9kSY9sipyqXaX82/T40em4Xwbw5D7x4NK3TEBxJwVUxEoGNPI2Oops7AshWPxS7FQQE0rCiaylUxUVDWk0PwQ5ipZ/EP4YNvCQ0reKYHRVS5KuZ7696CqtkAmPaQy09ueJEvoadvdXIBhFM5DSscrr+Lqu1ZrtqqmHGv9jz7jLBLT3x8Y1ahu/ebiecQIAAaVoAwXxVK27Nc96/rxLhXe5b91DDLZuwXCQieh6TOxLKLHiWTYAjQsILheAivkltHRypXhBS+8bDlchoyth7GLG38Mm/4JiDyU+xJz+XiP98ED7pIwwqG4yuiKHuWq6auXPo6gEtDKZdBj0xAcBt6CpcTU/MEaFjNMzwogspnucqlNQD+MuBSGa4hAvJHyPf9Y0NXePhVBGhYAQ6Fym+tuComwA43FWrPgc0Ovf/VVJSEX6ZhBTYAshsTWLBpU+WhwEI2G6jCVTHNIgz4/s+wO/Vm/nmWf6o0LP/sXrqpclXM8LpTAG8EBtMCKJEhgiPwN8gX3h9cuGRFomEF0G+lq2J+CIOZAZTHEEETEOlGT9/3gg6bhHg0rCa7zFUxTQJM5HX5NTJyChavHEtk+U0UTcNqAh5XxTQBL+lX+amDrwmgYfnCBqh8lmu4eDOMudpnSbwWNQExK9HTW4w6rc35aFg+uqfyWa5yqbbTis9O+ehnjFeeAXAy8oXtMWqwKjUNq8F2qXyWq1K8EFUMwRivwXJ4PH4C9yBfuCB+GXYooGE11CeFz3JxVUxDHdR5mF/B19sXGladpFR+a3V/aRbGMcpVMXU2Ue0xGcOEnIRzV25TK1GJMBpWnY1Q963V/lUxZjNgTqyzBB5TTUD+Hfm+P1AtUYE4GlY9TRC5edNIZaCeo5Gc4aqYSDBHn8S7EPkV344+rz0ZaViT9oqrYiZFxAMBEZBfAp0nI5/X86pSQJUFFYaGdQSSKlfFDBevhzEfD2oAGEcdgRuRL1ynTpUSQTSswzSCq2KUTGjiZMg40qnTsWTFfyeu9DoKpmEdCpLKZ7m4KqaOeXbjiOA/0FNY5EYxwVZBw3oFT5XPcnFVTLBTb0U0fpt1qDbRsF5JRduzXBvuOQYv7N3MVTFWuEyAIuVZTOw7EedesiPAoNaHomG9vIXanuUql9uAXbVnuc6wftJYgA8CcjPyfXo+p/FRQdBXaFgvEhVR9iyXiEF5aAgGFwXddMazhIBIFSlzKs4p/NwSxaHLpGHtR6zwWyuuigl9+O1IIHcj38f/03qxWYk3LJXfWlWK10DMF+z4gaLKCAjkkS9UIsijPkWiDau2KqY6Pj5ny5YNW9V0qrYqRsydAGLvjRomFPIQunvPhDGSdBSx/1DMO7v7DgOzMvpGcFVM9MyZsQkCf4x84R+auO/E1UQaFlfFODG7ySpC5ClMMyfgrMLzySr84GoTaVjqVsWU1+aA1INcFZPkH8W6ar8B+cLH6jrp6KHEGZbCZ7nSwNj3AbPQ0RljWcER2INMdTYWr9TzZ67B1VZXpEQZlrpnuWotKpe+DuDSurrFQySQ8OfBEmNYKp/lKpc+CeCj/CkkgQYICFA9GfmVjzRwx5mjiTAslc9yDZfeA4NbnZkkFhIlga8jX3hnlAm15HLesHQ+yzW0BNVqGcaktAwCdVhEoPav7Bg5JYm/ZTluWAq/teKqGIucQbXUf0G+8G7VCkMQ56xhqfzWiqtiQhjhhIZM6G9Z7hpWVa4bfbByo5px5qoYNa1wRojI19DT9x5n6qmjECcNi6ti6ug8j9hPIIG/ZTloWFwVY/9PIiuon4B8Ffm+K+s/b/dJpwxL5aqY4dK1MPi83WNC9YoJ7EMGs7G48LhijYFJc8awVD7LxVUxgQ0qAx2BgMjfo6fvT5LAyA3D0vgs1/fWvQVVswEw7UkYJNYYIwHB8zBTX4N8fleMKiJJbb1hqXyW6/7SLIxjFMCMSLrIJCQg+Ah6Cn/tOgjrDQvanuXiqhjXf2a01vcrdPfOcn0rqd2Gpe9ZLq6K0frjnAxdlyFfuN3lUq01LHXfWtWmhKtiXP5ZsaG2HyBfeIsNQv1qtNSwFH5rVS7eAJi/8NsI3iOBQAgYvBXdhf8MJJbCINYZVm1VzK70+NyHN2wYU8OTq2LUtCLxQkS+gZ4+ZxdCWmVYXBWT+B9HApiMQO1f1xEzC8sKT0x21Mb/3SLD4qoYGweMmmMgIPgsegofjiFz6CmtMCyuigl9DpjAKQLyLNB5NPL5fU6VpeF14XoeUlX3LNemUgfGsBHAGa4NBOtxhoCTnzio/w1L3bNcIgaVoe8AONeZ0WYhDhKQ7yLfd75rhak2LJXPcg0Xb4YxV7s2CKzHOQKCVGYmll7wa5cqU2tYOp/lKn4QMJ91aQBYi9ME1iBfuN6lClUalspnucqliwF8S8Of+7k0gKwlRAIiW9HTNzPEDJGHVmdYKr+1qq2KmTAbYUxL5B1iQhJohoCpno/uld9tJoSmu6oMq7YqBp5ZMrqx/IAaSFwVo6YVFOKLwO3IFy7zdVPhJVWGxVUxCieEkiwnIOPY1340zjvvt5YXsl++HsPStipm06YMxrbeB5iFLjSaNSSYgJE/RXff37pAQIVhQfDs6EjlClVAy6XaH7C/TZUmiiEBPwQEI+gpnO3nqrY7sRvWWQu63ysTYzePjo6Oq4EzXPo0DK5To4dCSKBZAt7ELJxz8S+bDRP3/dgNK24Ar8rPVTHqWkJBQRAwH0S+1/rn5mhYL5+F4dIyQO6BMakgRoQxSEAPAdmIfN/v69HjTwkN6/+5Da87BfBGYTDFH0reIgHlBCaqr8W5K7cpV3lEeTSsGp4N9xyDF/ZuhoFTXwXbPJjUHgIBI9eiu++LIUSOLCQNi6tiIhs2JoqdwH8iX3hr7CqaEJBswxLxUBm6h6timpggXrWLgOX/WJhswyqXvgrgcrsmjmpJoBkC5hrke29qJkKcd5NrWJXShyBw/mnvOIeLuRUSENmAnr7FCpXVJSmZhsVVMXUNBw85SUAwUT3W1r8tTJ5hDd95NjBxH1fFOPnDyKLqIiADyPfdXNdRZYeSZVgHVsX8AECXsj5QDglESWAt8oVLokwYVK7kGFZ5bQ5IPQiYE4OCxzgkYCUBwXPYvjuLVasmbNOfDMPiqhjb5pJ6wyYg1cXoWbkh7DRBx0+GYXFVTNBzw3i2ExD5JHr6Pm5bGe4bVrn0GQB/ZltjqJcEQiVg6Y4stw2Lq2JCnXkGt5qAYF9bl22rk901LK6KsfqnieIjICByKXr6vhFBpsBSuGlY5aHTIbKRq2ICmxMGcpGA4J/QU7jKptLcM6z9q2Je+BGMeY1NjaBWEoicgMhT6Omz6ufELcPiqpjIZ54JbSdQPQn5lY/YUoU7hsVVMbbMHHVqImDkPeju+5omSUfS4o5hcVWMLTNHnboIfBn5wqAuSYdX44ZhlYsfAcyNtkCnThJQQ0DkR+jpm6NGzyRC7DcsroqxZdaoUyMBkSpM5xTk83s0ynulJrsNi6tibJgxalRPwJyHfO+96mUCsNew1t81G97Eg1wVY8OYUaNqAiJ/iZ6+T6jW+KI4Ow2rtipG0j+AwfE2QKZGEtBNQL6NfN+FujUeUGefYXFVjA1zRY02ERDsRE8ha4Nk+wyLq2JsmCtqtI2AyOno6fuJdtl2GVal9DZU5X3aoVIfCVhHwJNPoXvld7XrtsuwtNOkPhIggVAJ0LBCxcvgJEACQRL4PwOeT+GQGnIFAAAAAElFTkSuQmCC;" vertex="1" parent="QRO-fFZTu3QB9WpkV5zD-2">
          <mxGeometry x="185" y="54" width="60" height="60" as="geometry" />
        </mxCell>
        <mxCell id="QRO-fFZTu3QB9WpkV5zD-46" value="Kubernetes" style="fillColor=none;strokeColor=#147EBA;dashed=1;verticalAlign=top;fontStyle=0;fontColor=#147EBA;" vertex="1" parent="QRO-fFZTu3QB9WpkV5zD-2">
          <mxGeometry x="100" y="20" width="320" height="120" as="geometry" />
        </mxCell>
        <mxCell id="QRO-fFZTu3QB9WpkV5zD-16" value="Bastion" style="sketch=0;outlineConnect=0;fontColor=#232F3E;gradientColor=none;fillColor=#232F3D;strokeColor=none;dashed=0;verticalLabelPosition=bottom;verticalAlign=top;align=center;html=1;fontSize=12;fontStyle=0;aspect=fixed;pointerEvents=1;shape=mxgraph.aws4.traditional_server;" vertex="1" parent="QRO-fFZTu3QB9WpkV5zD-2">
          <mxGeometry x="40" y="40" width="28.85" height="50" as="geometry" />
        </mxCell>
        <mxCell id="QRO-fFZTu3QB9WpkV5zD-3" value="VDI for SDS cloud" style="sketch=0;outlineConnect=0;fontColor=#232F3E;gradientColor=none;fillColor=#232F3D;strokeColor=none;dashed=0;verticalLabelPosition=bottom;verticalAlign=top;align=center;html=1;fontSize=12;fontStyle=0;aspect=fixed;pointerEvents=1;shape=mxgraph.aws4.client;" vertex="1" parent="1">
          <mxGeometry x="50" y="242" width="78" height="76" as="geometry" />
        </mxCell>
        <mxCell id="QRO-fFZTu3QB9WpkV5zD-4" value="" style="endArrow=classic;html=1;rounded=0;strokeColor=#666666;entryX=0;entryY=0.5;entryDx=0;entryDy=0;" edge="1" parent="1" source="QRO-fFZTu3QB9WpkV5zD-3" target="QRO-fFZTu3QB9WpkV5zD-2">
          <mxGeometry width="50" height="50" relative="1" as="geometry">
            <mxPoint x="480" y="550" as="sourcePoint" />
            <mxPoint x="530" y="500" as="targetPoint" />
          </mxGeometry>
        </mxCell>
        <mxCell id="QRO-fFZTu3QB9WpkV5zD-5" value="AWS Cloud" style="points=[[0,0],[0.25,0],[0.5,0],[0.75,0],[1,0],[1,0.25],[1,0.5],[1,0.75],[1,1],[0.75,1],[0.5,1],[0.25,1],[0,1],[0,0.75],[0,0.5],[0,0.25]];outlineConnect=0;gradientColor=none;html=1;whiteSpace=wrap;fontSize=12;fontStyle=0;container=1;pointerEvents=0;collapsible=0;recursiveResize=0;shape=mxgraph.aws4.group;grIcon=mxgraph.aws4.group_aws_cloud;strokeColor=#232F3E;fillColor=none;verticalAlign=top;align=left;spacingLeft=30;fontColor=#232F3E;dashed=0;" vertex="1" parent="1">
          <mxGeometry x="240" y="480" width="540" height="160" as="geometry" />
        </mxCell>
        <mxCell id="QRO-fFZTu3QB9WpkV5zD-17" value="Bastion" style="sketch=0;outlineConnect=0;fontColor=#232F3E;gradientColor=none;fillColor=#232F3D;strokeColor=none;dashed=0;verticalLabelPosition=bottom;verticalAlign=top;align=center;html=1;fontSize=12;fontStyle=0;aspect=fixed;pointerEvents=1;shape=mxgraph.aws4.traditional_server;" vertex="1" parent="QRO-fFZTu3QB9WpkV5zD-5">
          <mxGeometry x="40" y="40" width="28.85" height="50" as="geometry" />
        </mxCell>
        <mxCell id="QRO-fFZTu3QB9WpkV5zD-30" value="Elasticsearch" style="sketch=0;points=[[0,0,0],[0.25,0,0],[0.5,0,0],[0.75,0,0],[1,0,0],[0,1,0],[0.25,1,0],[0.5,1,0],[0.75,1,0],[1,1,0],[0,0.25,0],[0,0.5,0],[0,0.75,0],[1,0.25,0],[1,0.5,0],[1,0.75,0]];outlineConnect=0;fontColor=#232F3E;gradientColor=#945DF2;gradientDirection=north;fillColor=#5A30B5;strokeColor=#ffffff;dashed=0;verticalLabelPosition=bottom;verticalAlign=top;align=center;html=1;fontSize=12;fontStyle=0;aspect=fixed;shape=mxgraph.aws4.resourceIcon;resIcon=mxgraph.aws4.elasticsearch_service;" vertex="1" parent="QRO-fFZTu3QB9WpkV5zD-5">
          <mxGeometry x="110" y="53.25" width="60" height="60" as="geometry" />
        </mxCell>
        <mxCell id="QRO-fFZTu3QB9WpkV5zD-32" value="Prometheus" style="sketch=0;points=[[0,0,0],[0.25,0,0],[0.5,0,0],[0.75,0,0],[1,0,0],[0,1,0],[0.25,1,0],[0.5,1,0],[0.75,1,0],[1,1,0],[0,0.25,0],[0,0.5,0],[0,0.75,0],[1,0.25,0],[1,0.5,0],[1,0.75,0]];points=[[0,0,0],[0.25,0,0],[0.5,0,0],[0.75,0,0],[1,0,0],[0,1,0],[0.25,1,0],[0.5,1,0],[0.75,1,0],[1,1,0],[0,0.25,0],[0,0.5,0],[0,0.75,0],[1,0.25,0],[1,0.5,0],[1,0.75,0]];outlineConnect=0;fontColor=#232F3E;gradientColor=#F34482;gradientDirection=north;fillColor=#BC1356;strokeColor=#ffffff;dashed=0;verticalLabelPosition=bottom;verticalAlign=top;align=center;html=1;fontSize=12;fontStyle=0;aspect=fixed;shape=mxgraph.aws4.resourceIcon;resIcon=mxgraph.aws4.managed_service_for_prometheus;" vertex="1" parent="QRO-fFZTu3QB9WpkV5zD-5">
          <mxGeometry x="270" y="53.25" width="58" height="58" as="geometry" />
        </mxCell>
        <mxCell id="QRO-fFZTu3QB9WpkV5zD-34" value="Grafana" style="sketch=0;points=[[0,0,0],[0.25,0,0],[0.5,0,0],[0.75,0,0],[1,0,0],[0,1,0],[0.25,1,0],[0.5,1,0],[0.75,1,0],[1,1,0],[0,0.25,0],[0,0.5,0],[0,0.75,0],[1,0.25,0],[1,0.5,0],[1,0.75,0]];points=[[0,0,0],[0.25,0,0],[0.5,0,0],[0.75,0,0],[1,0,0],[0,1,0],[0.25,1,0],[0.5,1,0],[0.75,1,0],[1,1,0],[0,0.25,0],[0,0.5,0],[0,0.75,0],[1,0.25,0],[1,0.5,0],[1,0.75,0]];outlineConnect=0;fontColor=#232F3E;gradientColor=#F34482;gradientDirection=north;fillColor=#BC1356;strokeColor=#ffffff;dashed=0;verticalLabelPosition=bottom;verticalAlign=top;align=center;html=1;fontSize=12;fontStyle=0;aspect=fixed;shape=mxgraph.aws4.resourceIcon;resIcon=mxgraph.aws4.managed_service_for_grafana;" vertex="1" parent="QRO-fFZTu3QB9WpkV5zD-5">
          <mxGeometry x="350" y="53.25" width="59" height="59" as="geometry" />
        </mxCell>
        <mxCell id="QRO-fFZTu3QB9WpkV5zD-37" value="Cloudwatch" style="sketch=0;points=[[0,0,0],[0.25,0,0],[0.5,0,0],[0.75,0,0],[1,0,0],[0,1,0],[0.25,1,0],[0.5,1,0],[0.75,1,0],[1,1,0],[0,0.25,0],[0,0.5,0],[0,0.75,0],[1,0.25,0],[1,0.5,0],[1,0.75,0]];points=[[0,0,0],[0.25,0,0],[0.5,0,0],[0.75,0,0],[1,0,0],[0,1,0],[0.25,1,0],[0.5,1,0],[0.75,1,0],[1,1,0],[0,0.25,0],[0,0.5,0],[0,0.75,0],[1,0.25,0],[1,0.5,0],[1,0.75,0]];outlineConnect=0;fontColor=#232F3E;gradientColor=#F34482;gradientDirection=north;fillColor=#BC1356;strokeColor=#ffffff;dashed=0;verticalLabelPosition=bottom;verticalAlign=top;align=center;html=1;fontSize=12;fontStyle=0;aspect=fixed;shape=mxgraph.aws4.resourceIcon;resIcon=mxgraph.aws4.cloudwatch_2;" vertex="1" parent="QRO-fFZTu3QB9WpkV5zD-5">
          <mxGeometry x="440" y="50.5" width="59" height="59" as="geometry" />
        </mxCell>
        <mxCell id="QRO-fFZTu3QB9WpkV5zD-45" value="Kibana" style="shape=image;imageAspect=0;aspect=fixed;verticalLabelPosition=bottom;verticalAlign=top;image=data:image/png,iVBORw0KGgoAAAANSUhEUgAAASwAAAEsCAYAAAB5fY51AAAftklEQVR4Xu2dfZTcZXXHv89vZvYt2cwsCSgGgzS8iUA0ISE1L+xsgADZ2SDWgB4rcGjZ3dRTBd9KqzYoKq1v9PS0CrY9gm2PaGvIzAKiZGdE0oYlm/iCViq0ghIJJILZQEI2O7dnEooEkuzMb34v93l+X//xD5/n3u/93Ltfl+THfQz4HxIgARKwhICxRCdlkgAJkABiN6xnC1/6lACL2AsSIAE9BDyYLdnSwDV6FB1QErthPVP4ctEYFLSBoR4SSCoBEXkincbczrWDT2ljQMPS1hHqIYEYCYjguZSpzptWXP1wjDIOm5qGpbEr1EQC8RCYQBXLc0MD6+NJP3lWGtbkjHiCBBJBwFRxeXZo4DbNxdKwNHeH2kggKgIin8qVBj8aVTq/eWhYfsnxHgm4QkBwe640cJkN5dCwbOgSNZJAWARENmbHti0xlTX7wkoRZFwaVpA0GYsErCIgj4jXNr/rjiuftUU2DcuWTlEnCQRJQLC9FWZee6n/8SDDhh2LhhU2YcYnAWUEBLIbwKKu4uAWZdImlUPDmhQRD5CAQwQEYlBdkS2tvtvGqmhYNnaNmknAJwERubarNPhFn9djv0bDir0FFEACEREQ3JIrDfRHlC2UNDSsULAyKAkoIyC4K1vq7zUwokxZQ3JoWA3h4mESsI+AAD/O7WxdYCpX7rFP/cGKaVi2d5D6SeAIBDSvivHTOBqWH2q8QwIWEBCRnSkjC7SuivGDkIblhxrvkIB+AuPeRHXZtDtXf1+/1PoV0rDqZ8WTJGAPAZFLc6XBb9gjuD6lNKz6OPEUCVhDQCDXdxUH11gjuAGhNKwGYPEoCagnYNGqGD8saVh+qPEOCSgkIMB9uZ1PLrNlVYwfhDQsP9R4hwS0ERD8LGsyC0zxqjFt0oLUQ8MKkiZjkUAcBATbMyYzZ0rxqq1xpI8yJw0rStrMRQIBE7B5VYwfFDQsP9R4hwRUEJCqEem1dVWMH4Q0LD/UeIcEVBCQq3PFwa+okBKRCBpWRKCZhgSCJGAEN2VLA9cEGdOGWDQsG7pEjSTwcgKOrIrx01Qalh9qvEMCcREQbM6OtS5yYVWMH4Q0LD/UeIcEYiAgIo+l0hPzpq19744Y0qtIScNS0QaKIIEjE6itijH7vLm5u/sfTTIrGlaSu8/abSHg5KoYP/BpWH6o8Q4JREnA0VUxfhDSsPxQ4x0SiIiAAT6WLQ7cEFE69WloWOpbRIFJJSCQW7uKg1cktf5D1U3D4jSQgEIC+1fFFJ/MG6ypKpQXmyQaVmzomZgEDkMgIati/PSfhuWHGu+QQFgEBNsyJjM3Cati/CCkYfmhxjskEAIBETyXrsrCzjsHHwohvBMhaVhOtJFF2E9Aqqia83NDA+vtryW8CmhY4bFlZBJogEDyVsU0AOelozQsP9R4hwSCJCD4XK408KEgQ7oai4blamdZlyUEZG2uOHiJJWJjl0nDir0FFJBYArVVMVvNQjPaP55YBg0WTsNqEBiPk0AQBLgqxh9FGpY/brxFAv4JiDyDfd78pK+K8QOQhuWHGu+QgH8Ce40xS7Pr+h/wHyK5N2lYye09K4+BgIh5W1ep/44YUjuRkoblRBtZhCUE/jxXHPiMJVpVyqRhqWwLRblGgKtigukoDSsYjoxCAkcgIPdmi9uWc1VM80NCw2qeISOQwGEJCPDjnJiFptT/PDE1T4CG1TxDRiCBQxMQbEul5czOtYNPEVEwBGhYwXBkFBI4iABXxYQzEDSscLgyarIJTKCK5VwVE/wQ0LCCZ8qICSdgqrg8OzRwW8IxhFI+DSsUrAyaWAIiN+ZKg9cltv6QC6dhhQyY4ZNEgKtiwu42DStswoyfDAIiG7NbvaVcFRNuu2lY4fJl9EQQkEfEa5vfdceVzyai3BiLpGHFCJ+pHSAg8kwrvDe3l/ofd6Aa9SXQsNS3iAIVE+CqmIibQ8OKGDjTOUJAIAJzCVfFRNtPGla0vJnNFQJV8+HcUP9nXSnHljpoWLZ0ijr1EBDckisN9OsRlBwlNKzk9JqVBkKgtipm4HwDI4GEY5CGCNCwGsLFw0kmwFUx8XefhhV/D6jAAgIi8kQ6jblcFRNvs2hY8fJndgsIiMjOlJEF04qrH7ZArtMSaVhOt5fFBUBgwpuo5qfdufr7AcRiiCYJ0LCaBMjrbhPgqhhd/aVh6eoH1WgiIPKpXGnwo5okJV0LDSvpE8D6D01AcHuuNHAZ8egiQMPS1Q+q0UCgtipmbNsSU1mzT4McavgdARoWp4EEDiLAVTGaB4KGpbk71BYtAcH2Vph5XBUTLfZGstGwGqHFs84SEMhuAIu6ioNbnC3SgcJoWA40kSU0SUAgBtUV2dLqu5uMxOshE6BhhQyY4fUTEJFru0qDX9SvlAppWJyBZBPgqhir+k/DsqpdFBsoAcFd2VJ/L1fFBEo11GA0rFDxMrhaAoLN2bHWRaZy5R61GinsVQRoWByKxBGorYpJpSfmTFv73h2JK97ygmlYljeQ8hsjwFUxjfHSdpqGpa0j1BMmgXFvorqMq2LCRBxubBpWuHwZXRMBkUtzpcFvaJJELY0RoGE1xounLSUgkOu7ioNrLJVP2S8SoGFxFNwnwFUxzvSYhuVMK1nIoQgIcF9u55PLuCrGjfmgYbnRR1ZxaLf6WdZkFpjiVWME5AYBGpYbfWQVryQg2J4xmTlTildtJRx3CNCw3OklK3mRAFfFuDsKNCx3e5vQyqRqRHq5KsbN9tOw3OxrgquSq3PFwa8kGIDTpdOwnG5vsoozgpuypYFrklV1sqqlYSWr3+5Wy1Ux7vb2ZZXRsBLRZseL5KoYxxv8u/JoWIlptZuFishjqfTEPK6KcbO/r6yKhpWMPrtZpcgz2OfNz93d/6ibBbIqGhZnwBUC48aYJdl1/Q+4UhDrmJwAf8OanBFPaCTAVTEauxK6JhpW6IiZIGgCBvhYtjhwQ9BxGU8/ARqW/h5R4csICOTWruLgFYSSTAI0rGT23cqq96+KKT6ZN1hTtbIAim6aAA2raYQMEAkBAVfFRAJadxIalu7+UF2NgGBbxmTmclUMx4GGxRlQTUAEz6WrsrDzzsGHVAuluEgI0LAiwcwk/ghIFVVzfm5oYL2/+7zlGgEalmsddaoeropxqp0BFBO7Yc1b0L22w0tf0GJSe9qRfqHVpF9oN6m9bV5mvA3pfR0mM95uUvummMxEm5eRDi9VbZOW/f/d5bV5R3lt6Wmp1rZ2k+5skVTW88zRAXBhiPgJfDZXHPhw/DKoQBOB+A3r7O47DMzKoKCIiHSl2n87w2t/5mivY+zYdMfuY70pe49JTanOSLWnsqa1tdO0Tu3w0r9njGkNKi/jBErg33LFgXcEGpHBnCDgnGE10pVjvPanT0kftfW0lhk7T05Pl1npzqmdqZZj0+K9Fgaxs2mkFmfOimzMbvWWmtH+cWdqYiGBEYj9h3JewL9hBUGm1Xi7Z6eP+uVp6em/eWPmqBd+L51rmZHqmN7mpV5vYNqDyMEYryZQWxWDVNubu+648lnyIYFDEaBhNTAXRkz1lJauRxa3HPfk/NZjvVnpzpkZkzqhgRA8ejgCXBXD2aiDAA2rDkhHOjLNtD5zduuxjyxpOe7501qnZ6eZ1pM9YzqaDJu063uNMUu5KiZpbW+8XhpW48yOeOPAb2FHPbq0dea2+ZnXea/PdB6XNt6sgNO4E04gAnNJV6n/DneKYiVhEaBhhUX2ZXGP8dp/3dtx4qPLWt+QOTrVdrpnvCkRpLUjhch1udLgjXaIpcq4CdCwIu5ASsz4ovbX/XRF2+ydZ7Qcc1xLgv8MjKtiIh4+B9LRsGJu4sxU568KHbP/t7ttVscM0/4mGLTFLCmi9HJvtrhtOVfFRITbkTQ0LEWNbDWpFxa3Hvdfve0n7npj5qgT0sabqUheYFIE+HFOzEJT6n8+sKAMlAgCNCzFbX5TZsbPr5hy+pNzWo55o2fMDMVS65cm2JZKy5mdawefqv8ST5LAAQI0LAsmwQhkadvrH3rXlNOeOyGdPdPWzya4KsaCYVMukYalvEGvlNduUnsK7Sf98JKOkzIzUh1zAKQsKWECVSznqhhLuqVUJg1LaWPqkdXlte54V8fpP13efvzRHV7m1HruxHXGVHF5dmjgtrjyM68bBGhYbvQRx6eyj18x9bTH3tr2+hNSMMepKkvkxlxp8DpVmijGSgI0LCvbdnjRtSUT+dZZm/s752B6qn1u/OXJ2lxx8JL4dVCBCwRoWC508TA1vCGdfewDnWf98tSW6fNi2TLBVTEOT1c8pdGw4uEeadZO0zJ29dQzf3Re+wmz08Z7bTTJ5RHx2uZzVUw0tJOShYaVlE4D8ARS6Dhx8+VTzmiflmo5LbTSBdtbYea1l/ofDy0HAyeSAA0rkW0HzsjMePj9nWf95vhM9iwAmQAx7BXIwq7i4JYAYzIUCewnQMNK+CDM8Nqf+sC0+Zvntxx7Fgya+5qeq2ISPk3hl0/DCp+xFRlaTerxj3Yu3PT77cf1AMj5Ei34UK408Dlfd3mJBOogQMOqA1KSjnR6rY9en130kzMyR59rDOrfnCq4JVca6E8SK9YaPQEaVvTMrcg43Wt7+Ibc0v85KdO1DEDLkUXXVsUMnG9gxIriKNJaAjQsa1sXjfCZqakPfbrrnG0zU1PygPFemZWrYqLpA7McIEDD4iTUReDEdHbLDbklz81ITVn8/xdE5Il0GnO5KqYuhDwUAAEaVgAQkxTiTenpP/pkbqnp9DLHp4wsmFZc/XCS6met8RKI37AWdK81xlwcLwZmb5TAOemZ539+wz9/t9F7PE8CzRCI37AUvvzcDNBE3BVcvmmkzFUxiWi2riJpWLr6oV+NyPWbRipr9AulQhcJ0LBc7GpINYnIraMjlStCCs+wJDApARrWpIh4oEZARDZ2dmBJpVLZRyIkEBcBGlZc5C3KK5BHUpJaODKyfodFsinVQQI0LAebGmRJIrIdE97C0dHhR4OMy1gk4IcADcsPtcTckd1iTH50Y/mBxJTMQlUToGGpbk984kRQBeTtoyOVO+JTwcwkcDABGhYn4pAEqpBrNj9QuYl4SEATARqWpm4o0SKQvxl9oPJ+JXIogwReIkDD4jAcREBE1o6OVN5e+5KBaEhAGwEalraOxKin9q3VjqeQ/8UvKntilMHUJHBYAjQsDsd+AvzWioNgAwEalg1dClkjv7UKGTDDB0aAhhUYSjsDicg4PLNE1bdW5aFzIfIhpFPvxtKLnraTLFWHQYCGFQZVm2JqWxVTHjodIhthMAXAk/C8S3HOivtsQkqt4RGgYYXHVn9kbati7l/3Ouw1m2HMa16CJ1KFMZ9Ad+8nYUxVP1QqDJMADStMuopjq1sVc/+6Tox7IwBOPSQ2ke+hKpfi3JXbFGOltJAJ0LBCBqwzvNw7tR0XqlkVI+KhXCrDmKWT8Hoagneip7BeJ1eqCpsADStswsriC+THu9Ljix7esGFMjbRy6asALq9Lz4F/RPw0nt69BqtWTdR1h4ecIUDDcqaVkxciwBPVvXsXbNmyYevkpyM6US7+BWBuaDib4D/QUn0HFq/UU0vDRfBCowRoWI0Ss/W8YCeqsmjTpspDakoYLq6CMbf71iOyAyZ1AfIrNvmOwYtWEaBhWdUuf2Jr31pVxVy45cGynj/7Gb7zbJiJ7wMm46+qF2+J7AVwJXr6/rWpOLxsBQEalhVtalKktm+t1t81G97EgwC6mqzsZdflc+gufISfPgRHVGMkGpbGrgSoSUT+anSk8mcBhmwu1L3fmg4vMwqD45sLdMjb92Jvy8VYvvy5EGIzpAICNCwFTQhLgrpVMeVyG2TXBhjMDatmAD9D1bsAy1Y8FmIOho6JAA0rJvBhp1W5Kma4dCcMLgq7dgDPwPMu5r/SEwHpiFPQsCIGHkU6latihkufh8G1UdS/P4fIBIy5DPnCv0WWk4lCJ0DDCh1xtAlUroqplP4YgluiJXHAtgD5MPJ9n4shN1OGQICGFQLU+EIqfJarUrwQVQzBGC82LiJfQk/f6tjyM3FgBGhYgaGMN5DKZ7lqq2JQHQFMe7x09mf/JjD1Xcjn9ynQQgk+CdCwfILTdk3ds1yHWhUTN7TaxgfT2Yt8flfcUpjfHwEalj9uqm6pe5ZrslUxcdIT+QmM6Ua+sD1OGcztjwANyx83NbcUfmuVhoytr2NVTHwMBY8hY3qwpPd/4hPBzH4I0LD8UFNyR+W3VuXS1wFcqgTR4WUIfgOgBz2FH6rXSoEvEaBhWToMtVUxKfHmjIys36GmhMrQxyDyCTV6JhUiu5Ayy7C0UNt0yv9YQICGZUGTXiXRxVUxsfWBphUbeh+JaVg+oMV5ReWqmMrQEkh1fdOrYmIDS9OKDX2DiWlYDQKL/bjGVTFmYjMMpsXOpikBNK2m8EV0mYYVEehA0mh7livcVTGBIGssCE2rMV7Rn6ZhRc/cV0Z1z3JFsyrGF6vmLtG0muMX7m0aVrh8A4qu7lkug/LQUESrYgJi2EgYmlYjtKI8S8OKkraPXCqf5RoufgHGXOOjHIuuyBiQWor8ih9YJNp5qTQsxS1W+SxXfKtiou9U7VWejLeAX8RHj/5wGWlYenpxsBKN31ppWBUTdb8Ej6O1ZT4WLX8q6tTM92oCNCyFU6HyWytdq2Ki7tpD2Ne2GOed99uoEzPfwQRoWAonQkQGR0cqX1YjTeOqmKjhCEawJ7UUF130QtSpme93BGhYyqaBq2KUNeQgOfJtPL2nF6tWTWhW6bI2Gpai7nJVjKJmHF7KN5EvrLJCqYMiaVhKmspVMUoaUZ+Mv0O+8N76jvJUkARoWEHS9BlL57NcxY/DmOt9lpSAa+Ya5HtvSkChqkqkYcXcDpXPcg0XV8GY22NGozu9SBWCC7Gs7zu6hbqljoYVaz81Pstl+6qYKBsqu+CZuTin8PMosyY5Fw0rpu6rfJZr/V2z4cSqmCibKv8LTMxF/m3PRpk1qbloWDF1Xt2zXM6tiomwsSIbYDq7+eZh+MxpWOEzflUGdd9aObsqJsrmyj8j3/eHUWZMYi4aVsRdV/etlYjjq2KibDD/5jBs2jSssAm/LH5tVcyObVjwi19U9kSY9sipyqXaX82/T40em4Xwbw5D7x4NK3TEBxJwVUxEoGNPI2Oops7AshWPxS7FQQE0rCiaylUxUVDWk0PwQ5ipZ/EP4YNvCQ0reKYHRVS5KuZ7696CqtkAmPaQy09ueJEvoadvdXIBhFM5DSscrr+Lqu1ZrtqqmHGv9jz7jLBLT3x8Y1ahu/ebiecQIAAaVoAwXxVK27Nc96/rxLhXe5b91DDLZuwXCQieh6TOxLKLHiWTYAjQsILheAivkltHRypXhBS+8bDlchoyth7GLG38Mm/4JiDyU+xJz+XiP98ED7pIwwqG4yuiKHuWq6auXPo6gEtDKZdBj0xAcBt6CpcTU/MEaFjNMzwogspnucqlNQD+MuBSGa4hAvJHyPf9Y0NXePhVBGhYAQ6Fym+tuComwA43FWrPgc0Ovf/VVJSEX6ZhBTYAshsTWLBpU+WhwEI2G6jCVTHNIgz4/s+wO/Vm/nmWf6o0LP/sXrqpclXM8LpTAG8EBtMCKJEhgiPwN8gX3h9cuGRFomEF0G+lq2J+CIOZAZTHEEETEOlGT9/3gg6bhHg0rCa7zFUxTQJM5HX5NTJyChavHEtk+U0UTcNqAh5XxTQBL+lX+amDrwmgYfnCBqh8lmu4eDOMudpnSbwWNQExK9HTW4w6rc35aFg+uqfyWa5yqbbTis9O+ehnjFeeAXAy8oXtMWqwKjUNq8F2qXyWq1K8EFUMwRivwXJ4PH4C9yBfuCB+GXYooGE11CeFz3JxVUxDHdR5mF/B19sXGladpFR+a3V/aRbGMcpVMXU2Ue0xGcOEnIRzV25TK1GJMBpWnY1Q963V/lUxZjNgTqyzBB5TTUD+Hfm+P1AtUYE4GlY9TRC5edNIZaCeo5Gc4aqYSDBHn8S7EPkV344+rz0ZaViT9oqrYiZFxAMBEZBfAp0nI5/X86pSQJUFFYaGdQSSKlfFDBevhzEfD2oAGEcdgRuRL1ynTpUSQTSswzSCq2KUTGjiZMg40qnTsWTFfyeu9DoKpmEdCpLKZ7m4KqaOeXbjiOA/0FNY5EYxwVZBw3oFT5XPcnFVTLBTb0U0fpt1qDbRsF5JRduzXBvuOQYv7N3MVTFWuEyAIuVZTOw7EedesiPAoNaHomG9vIXanuUql9uAXbVnuc6wftJYgA8CcjPyfXo+p/FRQdBXaFgvEhVR9iyXiEF5aAgGFwXddMazhIBIFSlzKs4p/NwSxaHLpGHtR6zwWyuuigl9+O1IIHcj38f/03qxWYk3LJXfWlWK10DMF+z4gaLKCAjkkS9UIsijPkWiDau2KqY6Pj5ny5YNW9V0qrYqRsydAGLvjRomFPIQunvPhDGSdBSx/1DMO7v7DgOzMvpGcFVM9MyZsQkCf4x84R+auO/E1UQaFlfFODG7ySpC5ClMMyfgrMLzySr84GoTaVjqVsWU1+aA1INcFZPkH8W6ar8B+cLH6jrp6KHEGZbCZ7nSwNj3AbPQ0RljWcER2INMdTYWr9TzZ67B1VZXpEQZlrpnuWotKpe+DuDSurrFQySQ8OfBEmNYKp/lKpc+CeCj/CkkgQYICFA9GfmVjzRwx5mjiTAslc9yDZfeA4NbnZkkFhIlga8jX3hnlAm15HLesHQ+yzW0BNVqGcaktAwCdVhEoPav7Bg5JYm/ZTluWAq/teKqGIucQbXUf0G+8G7VCkMQ56xhqfzWiqtiQhjhhIZM6G9Z7hpWVa4bfbByo5px5qoYNa1wRojI19DT9x5n6qmjECcNi6ti6ug8j9hPIIG/ZTloWFwVY/9PIiuon4B8Ffm+K+s/b/dJpwxL5aqY4dK1MPi83WNC9YoJ7EMGs7G48LhijYFJc8awVD7LxVUxgQ0qAx2BgMjfo6fvT5LAyA3D0vgs1/fWvQVVswEw7UkYJNYYIwHB8zBTX4N8fleMKiJJbb1hqXyW6/7SLIxjFMCMSLrIJCQg+Ah6Cn/tOgjrDQvanuXiqhjXf2a01vcrdPfOcn0rqd2Gpe9ZLq6K0frjnAxdlyFfuN3lUq01LHXfWtWmhKtiXP5ZsaG2HyBfeIsNQv1qtNSwFH5rVS7eAJi/8NsI3iOBQAgYvBXdhf8MJJbCINYZVm1VzK70+NyHN2wYU8OTq2LUtCLxQkS+gZ4+ZxdCWmVYXBWT+B9HApiMQO1f1xEzC8sKT0x21Mb/3SLD4qoYGweMmmMgIPgsegofjiFz6CmtMCyuigl9DpjAKQLyLNB5NPL5fU6VpeF14XoeUlX3LNemUgfGsBHAGa4NBOtxhoCTnzio/w1L3bNcIgaVoe8AONeZ0WYhDhKQ7yLfd75rhak2LJXPcg0Xb4YxV7s2CKzHOQKCVGYmll7wa5cqU2tYOp/lKn4QMJ91aQBYi9ME1iBfuN6lClUalspnucqliwF8S8Of+7k0gKwlRAIiW9HTNzPEDJGHVmdYKr+1qq2KmTAbYUxL5B1iQhJohoCpno/uld9tJoSmu6oMq7YqBp5ZMrqx/IAaSFwVo6YVFOKLwO3IFy7zdVPhJVWGxVUxCieEkiwnIOPY1340zjvvt5YXsl++HsPStipm06YMxrbeB5iFLjSaNSSYgJE/RXff37pAQIVhQfDs6EjlClVAy6XaH7C/TZUmiiEBPwQEI+gpnO3nqrY7sRvWWQu63ysTYzePjo6Oq4EzXPo0DK5To4dCSKBZAt7ELJxz8S+bDRP3/dgNK24Ar8rPVTHqWkJBQRAwH0S+1/rn5mhYL5+F4dIyQO6BMakgRoQxSEAPAdmIfN/v69HjTwkN6/+5Da87BfBGYTDFH0reIgHlBCaqr8W5K7cpV3lEeTSsGp4N9xyDF/ZuhoFTXwXbPJjUHgIBI9eiu++LIUSOLCQNi6tiIhs2JoqdwH8iX3hr7CqaEJBswxLxUBm6h6timpggXrWLgOX/WJhswyqXvgrgcrsmjmpJoBkC5hrke29qJkKcd5NrWJXShyBw/mnvOIeLuRUSENmAnr7FCpXVJSmZhsVVMXUNBw85SUAwUT3W1r8tTJ5hDd95NjBxH1fFOPnDyKLqIiADyPfdXNdRZYeSZVgHVsX8AECXsj5QDglESWAt8oVLokwYVK7kGFZ5bQ5IPQiYE4OCxzgkYCUBwXPYvjuLVasmbNOfDMPiqhjb5pJ6wyYg1cXoWbkh7DRBx0+GYXFVTNBzw3i2ExD5JHr6Pm5bGe4bVrn0GQB/ZltjqJcEQiVg6Y4stw2Lq2JCnXkGt5qAYF9bl22rk901LK6KsfqnieIjICByKXr6vhFBpsBSuGlY5aHTIbKRq2ICmxMGcpGA4J/QU7jKptLcM6z9q2Je+BGMeY1NjaBWEoicgMhT6Omz6ufELcPiqpjIZ54JbSdQPQn5lY/YUoU7hsVVMbbMHHVqImDkPeju+5omSUfS4o5hcVWMLTNHnboIfBn5wqAuSYdX44ZhlYsfAcyNtkCnThJQQ0DkR+jpm6NGzyRC7DcsroqxZdaoUyMBkSpM5xTk83s0ynulJrsNi6tibJgxalRPwJyHfO+96mUCsNew1t81G97Eg1wVY8OYUaNqAiJ/iZ6+T6jW+KI4Ow2rtipG0j+AwfE2QKZGEtBNQL6NfN+FujUeUGefYXFVjA1zRY02ERDsRE8ha4Nk+wyLq2JsmCtqtI2AyOno6fuJdtl2GVal9DZU5X3aoVIfCVhHwJNPoXvld7XrtsuwtNOkPhIggVAJ0LBCxcvgJEACQRL4PwOeT+GQGnIFAAAAAElFTkSuQmCC;" vertex="1" parent="QRO-fFZTu3QB9WpkV5zD-5">
          <mxGeometry x="185" y="54.25" width="60" height="60" as="geometry" />
        </mxCell>
        <mxCell id="QRO-fFZTu3QB9WpkV5zD-47" value="Kubernetes" style="fillColor=none;strokeColor=#147EBA;dashed=1;verticalAlign=top;fontStyle=0;fontColor=#147EBA;" vertex="1" parent="QRO-fFZTu3QB9WpkV5zD-5">
          <mxGeometry x="100" y="20" width="320" height="120" as="geometry" />
        </mxCell>
        <mxCell id="QRO-fFZTu3QB9WpkV5zD-24" style="edgeStyle=orthogonalEdgeStyle;rounded=0;orthogonalLoop=1;jettySize=auto;html=1;strokeColor=#666666;" edge="1" parent="1" source="QRO-fFZTu3QB9WpkV5zD-6" target="QRO-fFZTu3QB9WpkV5zD-12">
          <mxGeometry relative="1" as="geometry">
            <Array as="points">
              <mxPoint x="89" y="420" />
            </Array>
          </mxGeometry>
        </mxCell>
        <mxCell id="QRO-fFZTu3QB9WpkV5zD-6" value="normal VDI" style="sketch=0;outlineConnect=0;fontColor=#232F3E;gradientColor=none;fillColor=#232F3D;strokeColor=none;dashed=0;verticalLabelPosition=bottom;verticalAlign=top;align=center;html=1;fontSize=12;fontStyle=0;aspect=fixed;pointerEvents=1;shape=mxgraph.aws4.client;" vertex="1" parent="1">
          <mxGeometry x="50" y="522" width="78" height="76" as="geometry" />
        </mxCell>
        <mxCell id="QRO-fFZTu3QB9WpkV5zD-7" value="" style="endArrow=classic;html=1;rounded=0;strokeColor=#666666;entryX=0;entryY=0.5;entryDx=0;entryDy=0;" edge="1" source="QRO-fFZTu3QB9WpkV5zD-6" target="QRO-fFZTu3QB9WpkV5zD-5" parent="1">
          <mxGeometry width="50" height="50" relative="1" as="geometry">
            <mxPoint x="480" y="830" as="sourcePoint" />
            <mxPoint x="530" y="780" as="targetPoint" />
          </mxGeometry>
        </mxCell>
        <mxCell id="QRO-fFZTu3QB9WpkV5zD-12" value="ADMIN" style="sketch=0;outlineConnect=0;fontColor=#232F3E;gradientColor=none;fillColor=#232F3D;strokeColor=none;dashed=0;verticalLabelPosition=bottom;verticalAlign=top;align=center;html=1;fontSize=12;fontStyle=0;aspect=fixed;pointerEvents=1;shape=mxgraph.aws4.user;" vertex="1" parent="1">
          <mxGeometry x="274.42" y="394" width="40" height="40" as="geometry" />
        </mxCell>
        <mxCell id="QRO-fFZTu3QB9WpkV5zD-19" value="public key" style="text;html=1;strokeColor=none;fillColor=none;align=center;verticalAlign=middle;whiteSpace=wrap;rounded=0;" vertex="1" parent="1">
          <mxGeometry x="150" y="420" width="60" height="30" as="geometry" />
        </mxCell>
        <mxCell id="QRO-fFZTu3QB9WpkV5zD-25" value="open firewall" style="text;html=1;strokeColor=none;fillColor=none;align=center;verticalAlign=middle;whiteSpace=wrap;rounded=0;" vertex="1" parent="1">
          <mxGeometry x="150" y="568" width="60" height="30" as="geometry" />
        </mxCell>
        <mxCell id="QRO-fFZTu3QB9WpkV5zD-26" value="open firewall" style="text;html=1;strokeColor=none;fillColor=none;align=center;verticalAlign=middle;whiteSpace=wrap;rounded=0;" vertex="1" parent="1">
          <mxGeometry x="150" y="288" width="60" height="30" as="geometry" />
        </mxCell>
        <mxCell id="QRO-fFZTu3QB9WpkV5zD-41" value="Slack" style="shape=image;html=1;verticalAlign=top;verticalLabelPosition=bottom;labelBackgroundColor=#ffffff;imageAspect=0;aspect=fixed;image=https://cdn2.iconfinder.com/data/icons/social-media-2285/512/1_Slack_colored_svg-128.png" vertex="1" parent="1">
          <mxGeometry x="470" y="660" width="60" height="60" as="geometry" />
        </mxCell>
        <mxCell id="QRO-fFZTu3QB9WpkV5zD-51" value="1" style="ellipse;whiteSpace=wrap;html=1;aspect=fixed;strokeWidth=2;fontFamily=Tahoma;spacingBottom=4;spacingRight=2;strokeColor=#d3d3d3;" vertex="1" parent="1">
          <mxGeometry x="140" y="288" width="20" height="20" as="geometry" />
        </mxCell>
        <mxCell id="QRO-fFZTu3QB9WpkV5zD-52" value="1" style="ellipse;whiteSpace=wrap;html=1;aspect=fixed;strokeWidth=2;fontFamily=Tahoma;spacingBottom=4;spacingRight=2;strokeColor=#d3d3d3;" vertex="1" parent="1">
          <mxGeometry x="140" y="568" width="20" height="20" as="geometry" />
        </mxCell>
        <mxCell id="QRO-fFZTu3QB9WpkV5zD-53" value="2" style="ellipse;whiteSpace=wrap;html=1;aspect=fixed;strokeWidth=2;fontFamily=Tahoma;spacingBottom=4;spacingRight=2;strokeColor=#d3d3d3;" vertex="1" parent="1">
          <mxGeometry x="128" y="425" width="20" height="20" as="geometry" />
        </mxCell>
        <mxCell id="QRO-fFZTu3QB9WpkV5zD-54" value="&lt;h1&gt;Monitoring&lt;/h1&gt;&lt;p&gt;1. Open firewall&amp;nbsp;&lt;/p&gt;&lt;p&gt;2. SSH connection to bastion server&lt;/p&gt;&lt;p&gt;&lt;span&gt;&lt;/span&gt;&amp;nbsp; 2.1 create key pairs&lt;br&gt;&lt;/p&gt;&lt;p&gt;&lt;span&gt;&lt;/span&gt;&amp;nbsp; 2.2 send public key to admin&lt;br&gt;&lt;/p&gt;&lt;p&gt;&lt;span&gt;&lt;/span&gt;&amp;nbsp; 2.3 Register the public key to the bastion server&lt;br&gt;&lt;/p&gt;&lt;p&gt;3. Monitor nexledger with s/w&lt;/p&gt;" style="text;html=1;strokeColor=none;fillColor=none;spacing=5;spacingTop=-20;whiteSpace=wrap;overflow=hidden;rounded=0;" vertex="1" parent="1">
          <mxGeometry x="820" y="160" width="300" height="230" as="geometry" />
        </mxCell>
        <mxCell id="QRO-fFZTu3QB9WpkV5zD-56" value="" style="endArrow=classic;html=1;rounded=0;strokeColor=#666666;entryX=0.5;entryY=0;entryDx=0;entryDy=0;exitX=0.5;exitY=1;exitDx=0;exitDy=0;" edge="1" parent="1" source="QRO-fFZTu3QB9WpkV5zD-47" target="QRO-fFZTu3QB9WpkV5zD-41">
          <mxGeometry width="50" height="50" relative="1" as="geometry">
            <mxPoint x="137.6647616392529" y="570" as="sourcePoint" />
            <mxPoint x="250" y="570" as="targetPoint" />
          </mxGeometry>
        </mxCell>
        <mxCell id="QRO-fFZTu3QB9WpkV5zD-57" value="&lt;h1&gt;Alert&lt;/h1&gt;&lt;p&gt;AWS only supported&lt;/p&gt;" style="text;html=1;strokeColor=none;fillColor=none;spacing=5;spacingTop=-20;whiteSpace=wrap;overflow=hidden;rounded=0;" vertex="1" parent="1">
          <mxGeometry x="820" y="440" width="300" height="230" as="geometry" />
        </mxCell>
      </root>
    </mxGraphModel>
  </diagram>
</mxfile>
